<svg width="19" height="19" viewBox="0 0 19 19" fill="none" xmlns="http://www.w3.org/2000/svg">
<g clip-path="url(#clip0_858_371)">
<path d="M18.6821 16.9113L14.9821 13.2113C15.9821 11.9113 16.6821 10.2113 16.6821 8.31128C16.6821 3.91128 13.0821 0.311279 8.68213 0.311279C4.28213 0.311279 0.682129 4.01128 0.682129 8.41128C0.682129 12.8113 4.28213 16.4113 8.68213 16.4113C10.4821 16.4113 12.1821 15.8113 13.5821 14.7113L17.2821 18.4113L18.6821 16.9113ZM8.68213 14.4113C5.38213 14.4113 2.68213 11.7113 2.68213 8.41128C2.68213 5.11128 5.38213 2.41128 8.68213 2.41128C11.9821 2.41128 14.6821 5.11128 14.6821 8.41128C14.6821 11.7113 11.9821 14.4113 8.68213 14.4113Z" fill="black"/>
</g>
<defs>
<clipPath id="clip0_858_371">
<rect width="18" height="18" fill="white" transform="translate(0.682129 0.411377)"/>
</clipPath>
</defs>
</svg>
